<svg width="117" height="49" viewBox="0 0 117 49" fill="none" xmlns="http://www.w3.org/2000/svg">
<path d="M3.51695 8.2H5.99895C7.24562 8.2 8.24295 8.37 8.99095 8.71C9.73895 9.05 10.385 9.594 10.929 10.342C11.473 11.0673 12.1076 12.1667 12.833 13.64L14.805 17.618L16.777 13.64C17.5023 12.1667 18.137 11.0673 18.681 10.342C19.225 9.594 19.871 9.05 20.619 8.71C21.367 8.37 22.3643 8.2 23.611 8.2H26.093V32H21.741V13.198C21.469 13.198 21.2423 13.3227 21.061 13.572C20.8796 13.8213 20.6076 14.2633 20.245 14.898L14.805 24.996L9.36495 14.898C9.00229 14.2633 8.73029 13.8213 8.54895 13.572C8.36762 13.3227 8.14095 13.1867 7.86895 13.164V32H3.51695V8.2ZM45.3704 26.458H36.0544L34.4564 32H29.6624L35.4764 13.028C35.8844 11.668 36.3151 10.614 36.7684 9.866C37.2218 9.118 37.7544 8.58533 38.3664 8.268C39.0011 7.95067 39.7831 7.792 40.7124 7.792C41.6418 7.792 42.4124 7.95067 43.0244 8.268C43.6364 8.58533 44.1691 9.118 44.6224 9.866C45.0984 10.614 45.5404 11.668 45.9484 13.028L51.7624 32H46.9684L45.3704 26.458ZM44.3164 22.888L41.4604 13.096C41.3018 12.5067 41.0524 12.212 40.7124 12.212C40.3724 12.212 40.1231 12.5067 39.9644 13.096L37.1084 22.888H44.3164ZM61.1584 32.408C60.229 32.408 59.447 32.2493 58.8124 31.932C58.2004 31.6147 57.6564 31.082 57.1804 30.334C56.727 29.5633 56.3077 28.5093 55.9224 27.172L50.4144 8.2H55.2084L60.4104 27.104C60.569 27.6933 60.8184 27.988 61.1584 27.988C61.4984 27.988 61.7477 27.6933 61.9064 27.104L67.1084 8.2H71.9024L66.3944 27.172C66.009 28.5093 65.5784 29.5633 65.1024 30.334C64.649 31.082 64.105 31.6147 63.4704 31.932C62.8584 32.2493 62.0877 32.408 61.1584 32.408ZM82.1821 32C79.1674 32 77.0027 31.3653 75.6881 30.096C74.3734 28.8267 73.7161 26.9907 73.7161 24.588V15.612C73.7161 13.2093 74.3734 11.3733 75.6881 10.104C77.0027 8.83466 79.1674 8.2 82.1821 8.2H90.1381V11.94H82.1821C80.9354 11.94 80.0061 12.2347 79.3941 12.824C78.8047 13.4133 78.5101 14.3427 78.5101 15.612V18.23H88.6421V21.97H78.5101V24.588C78.5101 25.8347 78.8047 26.764 79.3941 27.376C80.0061 27.9653 80.9354 28.26 82.1821 28.26H90.2061V32H82.1821ZM113.878 8.2V26.39C113.878 28.226 113.504 29.62 112.756 30.572C112.008 31.524 110.807 32 109.152 32H105.786L98.7823 15.782V32H94.2943V8.2H99.7003L108.336 27.92H108.404C108.79 27.92 109.05 27.7613 109.186 27.444C109.322 27.104 109.39 26.5033 109.39 25.642V8.2H113.878Z" fill="#64482D"/>
<path d="M27.0792 45.968C27.4552 45.968 27.7712 45.936 28.0272 45.872C28.2832 45.808 28.5152 45.72 28.7232 45.608L29.0352 46.712C28.8112 46.824 28.5272 46.92 28.1832 47C27.8392 47.08 27.4192 47.12 26.9232 47.12C26.3792 47.12 25.8712 47.032 25.3992 46.856C24.9352 46.68 24.5312 46.428 24.1872 46.1C23.8512 45.764 23.5872 45.356 23.3952 44.876C23.2032 44.388 23.1072 43.836 23.1072 43.22C23.1072 42.62 23.1992 42.08 23.3832 41.6C23.5672 41.112 23.8272 40.7 24.1632 40.364C24.5072 40.028 24.9152 39.772 25.3872 39.596C25.8592 39.412 26.3832 39.32 26.9592 39.32C27.4712 39.32 27.8912 39.364 28.2192 39.452C28.5472 39.54 28.8272 39.644 29.0592 39.764L28.7232 40.868C28.4832 40.748 28.2392 40.652 27.9912 40.58C27.7432 40.508 27.4552 40.472 27.1272 40.472C26.7912 40.472 26.4712 40.524 26.1672 40.628C25.8712 40.724 25.6112 40.884 25.3872 41.108C25.1712 41.324 24.9952 41.608 24.8592 41.96C24.7312 42.304 24.6672 42.724 24.6672 43.22C24.6672 43.7 24.7312 44.116 24.8592 44.468C24.9872 44.812 25.1592 45.096 25.3752 45.32C25.5912 45.544 25.8432 45.708 26.1312 45.812C26.4272 45.916 26.7432 45.968 27.0792 45.968ZM33.3194 39.32C33.8474 39.32 34.3354 39.408 34.7834 39.584C35.2314 39.752 35.6154 40.004 35.9354 40.34C36.2634 40.668 36.5194 41.076 36.7034 41.564C36.8874 42.044 36.9794 42.6 36.9794 43.232C36.9794 43.848 36.8834 44.396 36.6914 44.876C36.5074 45.356 36.2474 45.764 35.9114 46.1C35.5834 46.428 35.1914 46.68 34.7354 46.856C34.2874 47.032 33.7994 47.12 33.2714 47.12C32.7434 47.12 32.2554 47.036 31.8074 46.868C31.3594 46.7 30.9714 46.452 30.6434 46.124C30.3234 45.796 30.0714 45.392 29.8874 44.912C29.7034 44.424 29.6114 43.864 29.6114 43.232C29.6114 42.616 29.7034 42.068 29.8874 41.588C30.0794 41.1 30.3394 40.688 30.6674 40.352C31.0034 40.016 31.3954 39.76 31.8434 39.584C32.2994 39.408 32.7914 39.32 33.3194 39.32ZM31.1714 43.232C31.1714 43.704 31.2274 44.112 31.3394 44.456C31.4514 44.8 31.6034 45.088 31.7954 45.32C31.9954 45.544 32.2234 45.712 32.4794 45.824C32.7434 45.936 33.0234 45.992 33.3194 45.992C33.6154 45.992 33.8914 45.936 34.1474 45.824C34.4034 45.712 34.6234 45.544 34.8074 45.32C34.9994 45.088 35.1474 44.8 35.2514 44.456C35.3634 44.112 35.4194 43.704 35.4194 43.232C35.4194 42.752 35.3634 42.336 35.2514 41.984C35.1394 41.632 34.9834 41.344 34.7834 41.12C34.5914 40.888 34.3634 40.72 34.0994 40.616C33.8434 40.504 33.5674 40.448 33.2714 40.448C32.9754 40.448 32.6994 40.508 32.4434 40.628C32.1874 40.74 31.9634 40.912 31.7714 41.144C31.5874 41.368 31.4394 41.656 31.3274 42.008C31.2234 42.36 31.1714 42.768 31.1714 43.232ZM43.0423 39.44V40.592H39.8263V42.74H42.7783V43.88H39.8263V47H38.3623V39.44H43.0423ZM48.9603 39.44V40.592H45.7443V42.74H48.6963V43.88H45.7443V47H44.2803V39.44H48.9603ZM50.1983 39.44H54.9983V40.592H51.6623V42.5H54.6863V43.64H51.6623V45.848H55.0343V47H50.1983V39.44ZM56.3389 39.44H61.1389V40.592H57.8029V42.5H60.8269V43.64H57.8029V45.848H61.1749V47H56.3389V39.44ZM67.55 39.32C67.998 39.32 68.402 39.364 68.762 39.452C69.13 39.532 69.466 39.648 69.77 39.8L69.434 40.928C69.106 40.768 68.794 40.648 68.498 40.568C68.202 40.488 67.91 40.448 67.622 40.448C67.214 40.448 66.894 40.532 66.662 40.7C66.438 40.868 66.326 41.096 66.326 41.384C66.326 41.664 66.418 41.88 66.602 42.032C66.794 42.176 67.098 42.316 67.514 42.452L68.246 42.692C68.87 42.9 69.346 43.188 69.674 43.556C70.002 43.924 70.166 44.36 70.166 44.864C70.166 45.192 70.102 45.492 69.974 45.764C69.846 46.036 69.662 46.276 69.422 46.484C69.182 46.684 68.886 46.84 68.534 46.952C68.19 47.064 67.798 47.12 67.358 47.12C66.926 47.12 66.506 47.08 66.098 47C65.69 46.912 65.298 46.776 64.922 46.592L65.258 45.476C65.602 45.644 65.938 45.772 66.266 45.86C66.594 45.948 66.938 45.992 67.298 45.992C67.73 45.992 68.066 45.908 68.306 45.74C68.554 45.572 68.678 45.328 68.678 45.008C68.678 44.896 68.658 44.788 68.618 44.684C68.578 44.58 68.506 44.484 68.402 44.396C68.306 44.3 68.17 44.212 67.994 44.132C67.826 44.044 67.606 43.956 67.334 43.868L66.662 43.64C66.11 43.448 65.666 43.196 65.33 42.884C65.002 42.564 64.838 42.116 64.838 41.54C64.838 40.876 65.07 40.34 65.534 39.932C65.998 39.524 66.67 39.32 67.55 39.32ZM71.5264 47V39.44H72.9904V42.5H76.0984V39.44H77.5624V47H76.0984V43.676H72.9904V47H71.5264ZM82.6436 39.32C83.1716 39.32 83.6596 39.408 84.1076 39.584C84.5556 39.752 84.9396 40.004 85.2596 40.34C85.5876 40.668 85.8436 41.076 86.0276 41.564C86.2116 42.044 86.3036 42.6 86.3036 43.232C86.3036 43.848 86.2076 44.396 86.0156 44.876C85.8316 45.356 85.5716 45.764 85.2356 46.1C84.9076 46.428 84.5156 46.68 84.0596 46.856C83.6116 47.032 83.1236 47.12 82.5956 47.12C82.0676 47.12 81.5796 47.036 81.1316 46.868C80.6836 46.7 80.2956 46.452 79.9676 46.124C79.6476 45.796 79.3956 45.392 79.2116 44.912C79.0276 44.424 78.9356 43.864 78.9356 43.232C78.9356 42.616 79.0276 42.068 79.2116 41.588C79.4036 41.1 79.6636 40.688 79.9916 40.352C80.3276 40.016 80.7196 39.76 81.1676 39.584C81.6236 39.408 82.1156 39.32 82.6436 39.32ZM80.4956 43.232C80.4956 43.704 80.5516 44.112 80.6636 44.456C80.7756 44.8 80.9276 45.088 81.1196 45.32C81.3196 45.544 81.5476 45.712 81.8036 45.824C82.0676 45.936 82.3476 45.992 82.6436 45.992C82.9396 45.992 83.2156 45.936 83.4716 45.824C83.7276 45.712 83.9476 45.544 84.1316 45.32C84.3236 45.088 84.4716 44.8 84.5756 44.456C84.6876 44.112 84.7436 43.704 84.7436 43.232C84.7436 42.752 84.6876 42.336 84.5756 41.984C84.4636 41.632 84.3076 41.344 84.1076 41.12C83.9156 40.888 83.6876 40.72 83.4236 40.616C83.1676 40.504 82.8916 40.448 82.5956 40.448C82.2996 40.448 82.0236 40.508 81.7676 40.628C81.5116 40.74 81.2876 40.912 81.0956 41.144C80.9116 41.368 80.7636 41.656 80.6516 42.008C80.5476 42.36 80.4956 42.768 80.4956 43.232ZM87.6865 39.44H90.2425C90.6665 39.44 91.0505 39.492 91.3945 39.596C91.7385 39.7 92.0345 39.852 92.2825 40.052C92.5305 40.244 92.7185 40.484 92.8465 40.772C92.9825 41.052 93.0505 41.376 93.0505 41.744C93.0505 42.168 92.9745 42.532 92.8225 42.836C92.6705 43.14 92.4625 43.396 92.1985 43.604C91.9345 43.804 91.6225 43.952 91.2625 44.048C90.9025 44.144 90.5145 44.192 90.0985 44.192H89.1505V47H87.6865V39.44ZM89.1505 43.052H89.8225C90.0625 43.052 90.2865 43.032 90.4945 42.992C90.7025 42.952 90.8825 42.884 91.0345 42.788C91.1945 42.692 91.3185 42.564 91.4065 42.404C91.4945 42.244 91.5385 42.044 91.5385 41.804C91.5385 41.588 91.4985 41.404 91.4185 41.252C91.3385 41.092 91.2265 40.964 91.0825 40.868C90.9465 40.764 90.7865 40.688 90.6025 40.64C90.4185 40.592 90.2265 40.568 90.0265 40.568H89.1505V43.052Z" fill="#64482D"/>
<mask id="mask0_743_758" style="mask-type:luminance" maskUnits="userSpaceOnUse" x="99" y="40" width="7" height="7">
<path d="M102.927 40.9536L105.576 41.9175L101.65 46.9702L99 46.0063L102.927 40.9536Z" fill="white"/>
</mask>
<g mask="url(#mask0_743_758)">
<path d="M101.642 46.5378C101.557 46.621 101.454 46.6933 101.339 46.7515C101.338 46.7519 101.338 46.7522 101.337 46.7525C101.254 46.7945 101.158 46.8009 101.081 46.7615C100.077 46.2453 99.9678 44.7608 100.992 43.4424C102.078 42.0453 103.795 41.3568 105.204 41.7836C105.315 41.8172 105.409 41.8701 105.498 41.9251C105.542 41.9521 105.527 42.0057 105.47 42.0247C104.252 42.4344 103.393 42.8775 102.829 43.7227C102.628 44.0254 102.469 44.4348 102.355 44.8381C102.244 45.2169 102.243 45.9517 101.642 46.5378Z" fill="#64482D"/>
</g>
<mask id="mask1_743_758" style="mask-type:luminance" maskUnits="userSpaceOnUse" x="101" y="41" width="7" height="7">
<path d="M105.018 41.916L107.489 42.8157L103.702 47.6921L101.231 46.7924L105.018 41.916Z" fill="white"/>
</mask>
<g mask="url(#mask1_743_758)">
<path d="M105.623 45.2203C104.693 46.4178 103.206 47.1633 102.053 47.0776C101.904 47.0665 101.857 46.9309 101.968 46.8359C102.159 46.6714 102.336 46.4958 102.475 46.3041C103.199 45.3043 102.902 44.796 103.342 44.1262C103.752 43.5028 104.272 42.9698 105.426 42.4241C105.552 42.3648 105.683 42.3154 105.818 42.2772C105.894 42.2422 105.988 42.255 106.032 42.3052C106.608 42.9541 106.481 44.1145 105.623 45.2203Z" fill="#64482D"/>
</g>
<mask id="mask2_743_758" style="mask-type:luminance" maskUnits="userSpaceOnUse" x="8" y="40" width="7" height="7">
<path d="M8 41.8223L10.6497 40.8584L14.5763 45.911L11.9267 46.8749L8 41.8223Z" fill="white"/>
</mask>
<g mask="url(#mask2_743_758)">
<path d="M14.0482 45.6735C14.1013 45.7684 14.1312 45.8673 14.1377 45.9648C14.1378 45.9654 14.1378 45.9659 14.1379 45.9665C14.1425 46.0369 14.0963 46.0951 14.0057 46.1166C12.8186 46.3977 10.9588 45.6294 9.93425 44.3111C8.84845 42.9139 8.97413 41.5552 10.2795 40.9944C10.3821 40.9504 10.4989 40.9265 10.6155 40.9067C10.6726 40.8969 10.729 40.9356 10.7204 40.9783C10.5357 41.8983 10.5919 42.6337 11.3012 43.4258C11.5552 43.7094 11.9626 44.0282 12.3871 44.3188C12.7846 44.5931 13.674 45.005 14.0482 45.6735Z" fill="#64482D"/>
</g>
<mask id="mask3_743_758" style="mask-type:luminance" maskUnits="userSpaceOnUse" x="10" y="40" width="7" height="6">
<path d="M10.2868 41.1113L12.758 40.2116L16.5447 45.088L14.0735 45.9877L10.2868 41.1113Z" fill="white"/>
</mask>
<g mask="url(#mask3_743_758)">
<path d="M14.6256 42.6156C15.5554 43.8131 15.6265 45.0741 14.8776 45.681C14.7812 45.7592 14.591 45.7099 14.5378 45.5939C14.4458 45.3932 14.332 45.1946 14.1776 45.0086C13.3719 44.0386 12.5903 43.9231 12.0258 43.2985C11.5003 42.7171 11.1458 42.1239 11.1305 41.1635C11.1289 41.0591 11.1426 40.9568 11.1719 40.8587C11.1718 40.7964 11.2397 40.7503 11.3254 40.7531C12.4328 40.7891 13.767 41.5098 14.6256 42.6156Z" fill="#64482D"/>
</g>
</svg>
